<svg width="24" height="28" viewBox="0 0 24 28" fill="none" xmlns="http://www.w3.org/2000/svg">
<path d="M1.24085 17.3262C1.3105 17.6395 1.37746 17.9427 1.44231 18.2364C1.81669 19.9319 2.12089 21.3096 2.46687 22.4524C2.87139 23.7887 3.30671 24.7067 3.89809 25.3651C5.04994 26.6474 7.02953 27.1995 11.6667 27.1995C16.3038 27.1995 18.2834 26.6474 19.4352 25.3651C20.0266 24.7067 20.4619 23.7887 20.8664 22.4524C21.2124 21.3096 21.5166 19.9319 21.891 18.2365C21.9559 17.9428 22.0228 17.6395 22.0925 17.3262C23.0083 13.2079 22.4422 10.9897 20.9179 9.71386C20.1172 9.04366 18.9727 8.55767 17.416 8.24413C15.8614 7.93105 13.9504 7.80052 11.6667 7.80052C9.38289 7.80052 7.47193 7.93105 5.91736 8.24413C4.36059 8.55767 3.21616 9.04366 2.41548 9.71386C0.891188 10.9897 0.325086 13.2079 1.24085 17.3262Z" stroke="#C33407" stroke-opacity="0.95" stroke-width="1.60103" stroke-linecap="round" stroke-linejoin="round"/>
<path d="M11.6686 14.0039V21.0039M7.00195 14.0039V21.0039M16.3353 14.0039V21.0039" stroke="#C33407" stroke-opacity="0.95" stroke-width="1.60103" stroke-linecap="round" stroke-linejoin="round"/>
<path fill-rule="evenodd" clip-rule="evenodd" d="M10.0005 2.74548V1.21454C10.0005 0.683996 10.4306 0.253906 10.9611 0.253906H12.3732C12.9038 0.253906 13.3339 0.683995 13.3339 1.21454V2.74537C17.9037 2.97883 20.9153 4.14815 22.5826 5.1516C22.9614 5.37958 23.0836 5.87147 22.8556 6.25027C22.6277 6.62907 22.1358 6.75133 21.757 6.52335C20.1727 5.56984 16.9264 4.30466 11.6698 4.30466C6.40133 4.30466 3.06053 5.57492 1.60222 6.51112C1.23018 6.74996 0.734952 6.64198 0.496108 6.26994C0.257264 5.89789 0.365245 5.40267 0.73729 5.16382C2.32394 4.14524 5.42246 2.97885 10.0005 2.74548Z" fill="#C33407" fill-opacity="0.95"/>
</svg>
