<svg width="28" height="28" viewBox="0 0 28 28" fill="none" xmlns="http://www.w3.org/2000/svg">
<path d="M3.40819 3.40606C3.79866 3.79629 4.42928 3.79329 4.84607 3.4313C7.30435 1.2962 10.498 0 14.0088 0C21.7486 0 28 6.265 28 14C28 21.735 21.7486 28 14.0088 28C7.93059 28 2.79259 24.1356 0.852619 18.7336C0.631665 18.1184 1.10998 17.5 1.76371 17.5H3.40703C3.83127 17.5 4.20506 17.7698 4.37286 18.1595C5.97897 21.889 9.68879 24.5 14.0088 24.5C19.8049 24.5 24.5153 19.7925 24.5153 14C24.5153 8.2075 19.8049 3.5 14.0088 3.5C11.4612 3.5 9.1558 4.42745 7.35178 5.94072C6.92984 6.29466 6.93411 6.92977 7.32365 7.31908L10.5493 10.5427C11.1795 11.1725 10.7334 12.25 9.84238 12.25H1C0.447715 12.25 -2.23993e-08 11.8023 -2.23993e-08 11.25V2.41315C-2.23993e-08 1.52239 1.07683 1.07616 1.70689 1.70582L3.40819 3.40606Z" fill="#2DA771"/>
</svg>
